<svg xmlns="http://www.w3.org/2000/svg" width="169.338" height="80" viewBox="0 0 169.338 80"><defs><style>.a{fill:#95c11f;}.b{fill:#fff;}.c{fill:#ffc500;}</style></defs><g transform="translate(0 36.565)"><path class="a" d="M704.393,171.8a10.483,10.483,0,0,0-10.56,0,10.4,10.4,0,0,0-3.73,3.875,11.119,11.119,0,0,0-1.378,5.513,11.732,11.732,0,0,0,1.258,5.459,10.077,10.077,0,0,0,3.466,3.872,9.374,9.374,0,0,0,10,0q.269-.175.526-.366a2.877,2.877,0,0,0,.573.852,2.88,2.88,0,0,0,4.1,0,2.976,2.976,0,0,0,.83-2.12v-7.7a11.127,11.127,0,0,0-1.378-5.513A10.46,10.46,0,0,0,704.393,171.8Zm-1.162,12.1a4.713,4.713,0,0,1-1.686,1.856,4.711,4.711,0,0,1-4.842,0,4.8,4.8,0,0,1-1.718-1.863,5.587,5.587,0,0,1-.638-2.708,5.678,5.678,0,0,1,.638-2.745,4.8,4.8,0,0,1,1.718-1.862,4.715,4.715,0,0,1,4.842,0,4.741,4.741,0,0,1,1.686,1.856,5.814,5.814,0,0,1,.627,2.755A5.724,5.724,0,0,1,703.231,183.9Z" transform="translate(-688.724 -164.501)"/><path class="a" d="M730.1,171.367a7.7,7.7,0,0,0-3.955-1.021,8.785,8.785,0,0,0-4.427,1.118,8.082,8.082,0,0,0-1.363.978,6.656,6.656,0,0,0-1.379-1.076,7.7,7.7,0,0,0-3.953-1.021,7.61,7.61,0,0,0-4.119,1.143l-.068.044c-.041-.049-.084-.1-.129-.141a2.944,2.944,0,0,0-4.1-.015,2.966,2.966,0,0,0-.842,2.151v15.364a2.974,2.974,0,0,0,.827,2.118,2.9,2.9,0,0,0,4.133-.014,3.024,3.024,0,0,0,.8-2.1v-9.736a3.305,3.305,0,0,1,.815-2.343,2.552,2.552,0,0,1,2.018-.862,2.5,2.5,0,0,1,1.882.7,3.325,3.325,0,0,1,.685,2.363v9.875a2.98,2.98,0,0,0,.827,2.118,2.9,2.9,0,0,0,4.133-.014,3.019,3.019,0,0,0,.8-2.1v-9.736a3.357,3.357,0,0,1,.8-2.35,2.811,2.811,0,0,1,3.879-.151,3.325,3.325,0,0,1,.685,2.363v9.875a2.978,2.978,0,0,0,.827,2.118A2.9,2.9,0,0,0,733,191a3.017,3.017,0,0,0,.8-2.1v-9.875a10.442,10.442,0,0,0-.945-4.6A7.022,7.022,0,0,0,730.1,171.367Z" transform="translate(-683.144 -164.511)"/><path class="a" d="M744.291,173.39a9.356,9.356,0,0,0-9.148-.475,9.967,9.967,0,0,0-1.127.674v-4.47a3,3,0,0,0-.812-2.138,2.947,2.947,0,0,0-4.1-.012,2.961,2.961,0,0,0-.843,2.15v13.618a11.5,11.5,0,0,0,1.391,5.491,10.312,10.312,0,0,0,3.7,3.879,10.513,10.513,0,0,0,10.579,0,10.465,10.465,0,0,0,3.713-3.875,11.135,11.135,0,0,0,1.377-5.512,11.747,11.747,0,0,0-1.258-5.459A10.077,10.077,0,0,0,744.291,173.39Zm-1.54,12.064a4.811,4.811,0,0,1-1.7,1.877,4.711,4.711,0,0,1-4.841,0,4.646,4.646,0,0,1-1.694-1.866,5.813,5.813,0,0,1-.629-2.741,5.7,5.7,0,0,1,.624-2.732,4.713,4.713,0,0,1,1.7-1.84,4.711,4.711,0,0,1,4.841,0,4.867,4.867,0,0,1,1.71,1.852,5.584,5.584,0,0,1,.636,2.722A5.705,5.705,0,0,1,742.751,185.454Z" transform="translate(-675.776 -166.074)"/><path class="a" d="M747.8,170.471a2.82,2.82,0,0,0-2.036.825,2.961,2.961,0,0,0-.843,2.151v15.364a2.975,2.975,0,0,0,.828,2.118,2.9,2.9,0,0,0,4.131-.014,3.02,3.02,0,0,0,.8-2.1V173.447a3,3,0,0,0-.812-2.138A2.8,2.8,0,0,0,747.8,170.471Z" transform="translate(-670.319 -164.464)"/><path class="a" d="M765.565,171.742a9.326,9.326,0,0,0-5.092-1.371,10.074,10.074,0,0,0-5.269,1.39,9.8,9.8,0,0,0-3.627,3.846,11.7,11.7,0,0,0-1.3,5.577,11.17,11.17,0,0,0,1.379,5.566,10.024,10.024,0,0,0,3.822,3.835,11.082,11.082,0,0,0,9.094.726,10.282,10.282,0,0,0,3.161-1.705,2.463,2.463,0,0,0,.994-2.1,2.88,2.88,0,0,0-1.016-2,2.59,2.59,0,0,0-1.811-.649,3.006,3.006,0,0,0-1.756.639,5.4,5.4,0,0,1-1.442.741,5.027,5.027,0,0,1-1.73.328,5.358,5.358,0,0,1-2.793-.705,4.965,4.965,0,0,1-1.87-1.9c-.065-.115-.125-.232-.179-.351h11.123a2.654,2.654,0,0,0,1.917-.771,2.7,2.7,0,0,0,.8-1.962,12.466,12.466,0,0,0-1.1-5.35A8.913,8.913,0,0,0,765.565,171.742Zm-9.395,6.674.048-.1a4.288,4.288,0,0,1,1.614-1.86,4.837,4.837,0,0,1,2.64-.682,3.787,3.787,0,0,1,2.193.594,3.978,3.978,0,0,1,1.391,1.67c.058.123.112.252.159.383Z" transform="translate(-668.564 -164.501)"/><path class="a" d="M781.294,171.51a9.48,9.48,0,0,0-4.685-1.164,9.1,9.1,0,0,0-4.539,1.15q-.231.13-.45.272a2.921,2.921,0,0,0-4.43-.425,2.967,2.967,0,0,0-.843,2.151v15.4a2.975,2.975,0,0,0,.828,2.118,2.9,2.9,0,0,0,4.133-.014,3.023,3.023,0,0,0,.8-2.1v-9.736a2.686,2.686,0,0,1,.455-1.564,3.6,3.6,0,0,1,1.367-1.183,4.282,4.282,0,0,1,2.014-.458,4.817,4.817,0,0,1,2.2.479,3.29,3.29,0,0,1,1.391,1.369,5.325,5.325,0,0,1,.542,2.6v8.493a2.973,2.973,0,0,0,.828,2.118,2.881,2.881,0,0,0,4.1,0,2.985,2.985,0,0,0,.828-2.12V180.4a11.412,11.412,0,0,0-1.2-5.421A8.438,8.438,0,0,0,781.294,171.51Z" transform="translate(-663.3 -164.511)"/><path class="a" d="M792.693,187.534h-1.136a1.049,1.049,0,0,1-.892-.486,2.394,2.394,0,0,1-.471-1.545v-7.314h1.665a2.739,2.739,0,0,0,1.933-.737,2.6,2.6,0,0,0,.813-1.928,2.683,2.683,0,0,0-.814-2,2.733,2.733,0,0,0-1.932-.735h-1.665v-3.758a2.957,2.957,0,0,0-.812-2.1,2.885,2.885,0,0,0-4.066,0,2.954,2.954,0,0,0-.812,2.1v3.758h-.361a2.734,2.734,0,0,0-1.933.735,2.685,2.685,0,0,0-.812,2,2.6,2.6,0,0,0,.811,1.928,2.74,2.74,0,0,0,1.934.737h.361V185.5a8.726,8.726,0,0,0,.9,3.98,7.31,7.31,0,0,0,2.514,2.861,6.49,6.49,0,0,0,3.637,1.072h.6a3.2,3.2,0,0,0,2.18-.772,2.8,2.8,0,0,0,.966-2.169,3.084,3.084,0,0,0-.717-2.053A2.452,2.452,0,0,0,792.693,187.534Z" transform="translate(-658.371 -166.093)"/><path class="a" d="M807.431,171.8a10.481,10.481,0,0,0-10.559,0,10.4,10.4,0,0,0-3.73,3.875,11.124,11.124,0,0,0-1.378,5.513,11.747,11.747,0,0,0,1.257,5.459,10.081,10.081,0,0,0,3.468,3.872,9.374,9.374,0,0,0,10,0q.269-.175.526-.366a2.847,2.847,0,0,0,.573.852,2.882,2.882,0,0,0,4.1,0,2.985,2.985,0,0,0,.828-2.12v-7.7a11.126,11.126,0,0,0-1.378-5.513A10.444,10.444,0,0,0,807.431,171.8Zm-1.162,12.1a4.705,4.705,0,0,1-1.685,1.855,4.711,4.711,0,0,1-4.841,0,4.793,4.793,0,0,1-1.718-1.862,5.6,5.6,0,0,1-.639-2.71,5.676,5.676,0,0,1,.639-2.745,4.794,4.794,0,0,1,1.718-1.862,4.715,4.715,0,0,1,4.841,0,4.729,4.729,0,0,1,1.685,1.856,5.8,5.8,0,0,1,.628,2.755A5.72,5.72,0,0,1,806.27,183.9Z" transform="translate(-654.975 -164.501)"/><path class="a" d="M817.959,188.4a2.524,2.524,0,0,0-1.962-.888h-.846s-.07-.037-.177-.226a3.057,3.057,0,0,1-.308-1.494v-16.71a2.959,2.959,0,0,0-.812-2.1,2.885,2.885,0,0,0-4.066,0,2.953,2.953,0,0,0-.811,2.1v16.71a9.349,9.349,0,0,0,.741,3.8,6.682,6.682,0,0,0,2.161,2.748,5.455,5.455,0,0,0,3.283,1.051h.068a3.76,3.76,0,0,0,2.334-.72,2.71,2.71,0,0,0,1.112-2.221A3.091,3.091,0,0,0,817.959,188.4Z" transform="translate(-649.338 -166.074)"/></g><path class="b" d="M-50.051-1.384a3.187,3.187,0,0,1,.4-1.6,2.911,2.911,0,0,1,1.092-1.107,2.971,2.971,0,0,1,1.511-.4,3,3,0,0,1,1.672.477A2.7,2.7,0,0,1-44.31-2.661h-1.16a1.589,1.589,0,0,0-.635-.718,1.836,1.836,0,0,0-.94-.236,2,2,0,0,0-1.041.271,1.863,1.863,0,0,0-.715.779,2.572,2.572,0,0,0-.258,1.181A2.572,2.572,0,0,0-48.8-.2a1.892,1.892,0,0,0,.715.783,1.977,1.977,0,0,0,1.041.276,1.836,1.836,0,0,0,.94-.236A1.589,1.589,0,0,0-45.47-.1h1.16A2.676,2.676,0,0,1-45.373,1.25a3.016,3.016,0,0,1-1.672.473,2.964,2.964,0,0,1-1.516-.4A2.92,2.92,0,0,1-49.649.218,3.187,3.187,0,0,1-50.051-1.384ZM-41.8-4.411V-.535A1.41,1.41,0,0,0-41.453.507a1.325,1.325,0,0,0,.978.35,1.337,1.337,0,0,0,.986-.35,1.41,1.41,0,0,0,.351-1.041V-4.411h.965V-.552a2.387,2.387,0,0,1-.313,1.26,1.967,1.967,0,0,1-.838.77,2.63,2.63,0,0,1-1.16.254,2.6,2.6,0,0,1-1.156-.254,1.921,1.921,0,0,1-.826-.77,2.439,2.439,0,0,1-.3-1.26V-4.411Zm6.274,0V1.671H-36.5V-4.411Zm3.615,0a3.487,3.487,0,0,1,1.647.372,2.612,2.612,0,0,1,1.092,1.068,3.3,3.3,0,0,1,.385,1.623,3.223,3.223,0,0,1-.385,1.61,2.579,2.579,0,0,1-1.092,1.046,3.557,3.557,0,0,1-1.647.363h-1.922V-4.411Zm0,5.268A2.084,2.084,0,0,0-30.332.279a2.266,2.266,0,0,0,.55-1.628A2.343,2.343,0,0,0-30.332-3a2.05,2.05,0,0,0-1.583-.6h-.957V.857Zm8.052-.429h-2.464l-.423,1.243h-1.008l2.108-6.091h1.118l2.108,6.091h-1.016Zm-.271-.814-.957-2.827-.965,2.827Zm7.883,2.056h-.965l-2.9-4.542V1.671h-.965V-4.42h.965l2.9,4.533V-4.42h.965Zm3.615-6.082a3.487,3.487,0,0,1,1.647.372A2.612,2.612,0,0,1-9.9-2.972a3.3,3.3,0,0,1,.385,1.623A3.223,3.223,0,0,1-9.9.262a2.579,2.579,0,0,1-1.092,1.046,3.557,3.557,0,0,1-1.647.363h-1.922V-4.411Zm0,5.268A2.084,2.084,0,0,0-11.052.279a2.266,2.266,0,0,0,.55-1.628A2.343,2.343,0,0,0-11.052-3a2.05,2.05,0,0,0-1.583-.6h-.957V.857Zm7.188.875a2.971,2.971,0,0,1-1.511-.4A2.9,2.9,0,0,1-8.051.222a3.212,3.212,0,0,1-.4-1.606,3.187,3.187,0,0,1,.4-1.6A2.911,2.911,0,0,1-6.959-4.092a2.971,2.971,0,0,1,1.511-.4,2.987,2.987,0,0,1,1.52.4A2.88,2.88,0,0,1-2.839-2.985a3.214,3.214,0,0,1,.4,1.6,3.239,3.239,0,0,1-.4,1.606A2.872,2.872,0,0,1-3.927,1.334,2.987,2.987,0,0,1-5.447,1.732Zm0-.866A1.977,1.977,0,0,0-4.406.59,1.887,1.887,0,0,0-3.69-.2a2.6,2.6,0,0,0,.258-1.186A2.572,2.572,0,0,0-3.69-2.565a1.863,1.863,0,0,0-.715-.779,2,2,0,0,0-1.041-.271,2,2,0,0,0-1.041.271,1.863,1.863,0,0,0-.715.779,2.572,2.572,0,0,0-.258,1.181A2.6,2.6,0,0,0-7.2-.2,1.887,1.887,0,0,0-6.489.59,1.977,1.977,0,0,0-5.447.865ZM3.477-4.411a3.487,3.487,0,0,1,1.647.372A2.612,2.612,0,0,1,6.216-2.972,3.3,3.3,0,0,1,6.6-1.349,3.223,3.223,0,0,1,6.216.262,2.579,2.579,0,0,1,5.124,1.307a3.557,3.557,0,0,1-1.647.363H1.555V-4.411Zm0,5.268A2.084,2.084,0,0,0,5.06.279a2.266,2.266,0,0,0,.55-1.628A2.343,2.343,0,0,0,5.06-3a2.05,2.05,0,0,0-1.583-.6H2.52V.857ZM11.529.428H9.065L8.642,1.671H7.634L9.742-4.42H10.86l2.108,6.091H11.952Zm-.271-.814L10.3-3.212,9.336-.386ZM21.765,1.671H20.8L17.9-2.871V1.671h-.965V-4.42H17.9L20.8.113V-4.42h.965Zm4.377.061a2.971,2.971,0,0,1-1.511-.4A2.9,2.9,0,0,1,23.539.222a3.212,3.212,0,0,1-.4-1.606,3.187,3.187,0,0,1,.4-1.6,2.911,2.911,0,0,1,1.092-1.107,2.971,2.971,0,0,1,1.511-.4,2.987,2.987,0,0,1,1.52.4,2.88,2.88,0,0,1,1.088,1.107,3.214,3.214,0,0,1,.4,1.6,3.239,3.239,0,0,1-.4,1.606,2.872,2.872,0,0,1-1.088,1.111A2.987,2.987,0,0,1,26.143,1.732Zm0-.866A1.977,1.977,0,0,0,27.184.59,1.887,1.887,0,0,0,27.9-.2a2.6,2.6,0,0,0,.258-1.186A2.572,2.572,0,0,0,27.9-2.565a1.863,1.863,0,0,0-.715-.779,2,2,0,0,0-1.041-.271,2,2,0,0,0-1.041.271,1.863,1.863,0,0,0-.715.779,2.572,2.572,0,0,0-.258,1.181A2.6,2.6,0,0,0,24.386-.2,1.887,1.887,0,0,0,25.1.59,1.977,1.977,0,0,0,26.143.865Zm6.316.866a2.561,2.561,0,0,1-1.067-.214,1.762,1.762,0,0,1-.745-.608,1.581,1.581,0,0,1-.271-.919h1.033a.977.977,0,0,0,.3.648,1.044,1.044,0,0,0,.749.254,1.129,1.129,0,0,0,.779-.249A.823.823,0,0,0,33.517,0a.716.716,0,0,0-.174-.5,1.159,1.159,0,0,0-.432-.3,6.358,6.358,0,0,0-.715-.228,6.553,6.553,0,0,1-.936-.319,1.556,1.556,0,0,1-.614-.5,1.489,1.489,0,0,1-.254-.91,1.658,1.658,0,0,1,.254-.919,1.636,1.636,0,0,1,.711-.6,2.511,2.511,0,0,1,1.058-.21,2.157,2.157,0,0,1,1.4.442,1.648,1.648,0,0,1,.605,1.212H33.357a.806.806,0,0,0-.3-.569,1.1,1.1,0,0,0-.737-.236,1.022,1.022,0,0,0-.677.219.774.774,0,0,0-.262.63.652.652,0,0,0,.165.459,1.164,1.164,0,0,0,.419.284,6.356,6.356,0,0,0,.694.228,7.088,7.088,0,0,1,.953.333,1.6,1.6,0,0,1,.627.512,1.507,1.507,0,0,1,.258.923,1.7,1.7,0,0,1-.241.875,1.763,1.763,0,0,1-.7.661A2.255,2.255,0,0,1,32.459,1.732Zm5.537,0a2.561,2.561,0,0,1-1.067-.214,1.762,1.762,0,0,1-.745-.608,1.581,1.581,0,0,1-.271-.919h1.033a.977.977,0,0,0,.3.648A1.044,1.044,0,0,0,38,.892a1.129,1.129,0,0,0,.779-.249A.823.823,0,0,0,39.055,0a.716.716,0,0,0-.174-.5,1.159,1.159,0,0,0-.432-.3,6.357,6.357,0,0,0-.715-.228,6.553,6.553,0,0,1-.936-.319,1.556,1.556,0,0,1-.614-.5,1.489,1.489,0,0,1-.254-.91,1.658,1.658,0,0,1,.254-.919,1.636,1.636,0,0,1,.711-.6,2.511,2.511,0,0,1,1.058-.21,2.157,2.157,0,0,1,1.4.442,1.648,1.648,0,0,1,.605,1.212H38.894a.806.806,0,0,0-.3-.569,1.1,1.1,0,0,0-.737-.236,1.022,1.022,0,0,0-.677.219.774.774,0,0,0-.262.63.652.652,0,0,0,.165.459,1.164,1.164,0,0,0,.419.284,6.356,6.356,0,0,0,.694.228,7.088,7.088,0,0,1,.953.333,1.6,1.6,0,0,1,.627.512,1.507,1.507,0,0,1,.258.923,1.7,1.7,0,0,1-.241.875,1.763,1.763,0,0,1-.7.661A2.255,2.255,0,0,1,38,1.732Zm7.146-1.3H42.679l-.423,1.243H41.248L43.356-4.42h1.118l2.108,6.091H45.566Zm-.271-.814-.957-2.827L42.95-.386Zm5.351-1a3.187,3.187,0,0,1,.4-1.6,2.911,2.911,0,0,1,1.092-1.107,2.971,2.971,0,0,1,1.511-.4,3,3,0,0,1,1.672.477,2.7,2.7,0,0,1,1.063,1.352H54.8a1.589,1.589,0,0,0-.635-.718,1.836,1.836,0,0,0-.94-.236,2,2,0,0,0-1.041.271,1.863,1.863,0,0,0-.715.779,2.572,2.572,0,0,0-.258,1.181A2.572,2.572,0,0,0,51.472-.2a1.892,1.892,0,0,0,.715.783,1.977,1.977,0,0,0,1.041.276,1.836,1.836,0,0,0,.94-.236A1.589,1.589,0,0,0,54.8-.1h1.16A2.676,2.676,0,0,1,54.9,1.25a3.016,3.016,0,0,1-1.672.473,2.964,2.964,0,0,1-1.516-.4A2.92,2.92,0,0,1,50.625.218,3.187,3.187,0,0,1,50.223-1.384Zm8.255-3.028V1.671h-.965V-4.411Zm3.615,0a3.487,3.487,0,0,1,1.647.372,2.612,2.612,0,0,1,1.092,1.068,3.3,3.3,0,0,1,.385,1.623,3.223,3.223,0,0,1-.385,1.61A2.579,2.579,0,0,1,63.74,1.307a3.557,3.557,0,0,1-1.647.363H60.171V-4.411Zm0,5.268A2.084,2.084,0,0,0,63.677.279a2.266,2.266,0,0,0,.55-1.628A2.343,2.343,0,0,0,63.677-3a2.05,2.05,0,0,0-1.583-.6h-.957V.857ZM70.145.428H67.681l-.423,1.243H66.251L68.359-4.42h1.118l2.108,6.091H70.569Zm-.271-.814-.957-2.827L67.952-.386Zm4.97-4.025a3.487,3.487,0,0,1,1.647.372,2.612,2.612,0,0,1,1.092,1.068,3.3,3.3,0,0,1,.385,1.623,3.223,3.223,0,0,1-.385,1.61,2.579,2.579,0,0,1-1.092,1.046,3.557,3.557,0,0,1-1.647.363H72.923V-4.411Zm0,5.268A2.084,2.084,0,0,0,76.428.279a2.266,2.266,0,0,0,.55-1.628A2.343,2.343,0,0,0,76.428-3a2.05,2.05,0,0,0-1.583-.6h-.957V.857Zm5.47-4.463v1.785h2.032v.814H80.314V.857H82.6v.814H79.349V-4.42H82.6v.814Z" transform="translate(68.033 78.268)"/><g transform="translate(59.999)"><path class="c" d="M747.444,144.285a.843.843,0,0,0,.828-.858V140.3a.829.829,0,1,0-1.658,0v3.128A.844.844,0,0,0,747.444,144.285Z" transform="translate(-729.762 -139.443)"/><path class="c" d="M747.444,162.551a.843.843,0,0,0-.83.856v3.128a.829.829,0,1,0,1.658,0v-3.128A.842.842,0,0,0,747.444,162.551Z" transform="translate(-729.762 -130.846)"/><path class="c" d="M760.884,152.137h-3.027a.857.857,0,0,0,0,1.712h3.027a.857.857,0,0,0,0-1.712Z" transform="translate(-726.351 -134.72)"/><path class="c" d="M738.6,152.993a.842.842,0,0,0-.828-.856H734.75a.857.857,0,0,0,0,1.712h3.027A.842.842,0,0,0,738.6,152.993Z" transform="translate(-733.92 -134.72)"/><path class="c" d="M755.393,146.835l2.14-2.212a.877.877,0,0,0,0-1.212.81.81,0,0,0-1.172,0l-2.14,2.212a.877.877,0,0,0,0,1.212A.81.81,0,0,0,755.393,146.835Z" transform="translate(-727.35 -138.06)"/><path class="c" d="M740.021,159.751l-2.14,2.213a.877.877,0,0,0,0,1.212.812.812,0,0,0,1.172,0l2.141-2.213a.879.879,0,0,0,0-1.212A.813.813,0,0,0,740.021,159.751Z" transform="translate(-732.702 -131.981)"/><path class="c" d="M755.393,159.751a.812.812,0,0,0-1.172,0,.877.877,0,0,0,0,1.212l2.14,2.213a.812.812,0,0,0,1.172,0,.877.877,0,0,0,0-1.212Z" transform="translate(-727.35 -131.981)"/><path class="c" d="M740.021,146.835a.811.811,0,0,0,1.174,0,.879.879,0,0,0,0-1.212l-2.141-2.212a.81.81,0,0,0-1.172,0,.877.877,0,0,0,0,1.212Z" transform="translate(-732.702 -138.06)"/><path class="c" d="M751.242,145a.818.818,0,0,0,1.089-.447l1.2-2.872a.87.87,0,0,0-.433-1.126.819.819,0,0,0-1.09.447l-1.2,2.872A.867.867,0,0,0,751.242,145Z" transform="translate(-728.411 -139.057)"/><path class="c" d="M743.941,161.768a.821.821,0,0,0-1.09.447l-1.2,2.873a.866.866,0,0,0,.433,1.125.817.817,0,0,0,1.089-.447l1.2-2.872A.87.87,0,0,0,743.941,161.768Z" transform="translate(-731.41 -131.163)"/><path class="c" d="M760.112,157.573l-2.779-1.24a.82.82,0,0,0-1.09.447.868.868,0,0,0,.433,1.126l2.779,1.239a.819.819,0,0,0,1.09-.447A.866.866,0,0,0,760.112,157.573Z" transform="translate(-726.631 -133.185)"/><path class="c" d="M735.459,148.751l2.78,1.239a.817.817,0,0,0,1.089-.447.866.866,0,0,0-.431-1.125l-2.78-1.24a.817.817,0,0,0-1.089.447A.868.868,0,0,0,735.459,148.751Z" transform="translate(-733.579 -136.592)"/><path class="c" d="M756.351,149.779a.821.821,0,0,0,1.077.48l2.813-1.154a.868.868,0,0,0,.465-1.113h0a.82.82,0,0,0-1.077-.48l-2.813,1.154A.868.868,0,0,0,756.351,149.779Z" transform="translate(-726.592 -136.463)"/><path class="c" d="M739.229,156.521a.82.82,0,0,0-1.077-.48L735.34,157.2a.864.864,0,0,0-.465,1.111.819.819,0,0,0,1.075.48l2.813-1.154A.867.867,0,0,0,739.229,156.521Z" transform="translate(-733.626 -133.29)"/><path class="c" d="M752.056,162.355a.818.818,0,0,0-1.075-.479.865.865,0,0,0-.465,1.111l1.117,2.907a.82.82,0,0,0,1.077.48.867.867,0,0,0,.465-1.113Z" transform="translate(-728.503 -131.119)"/><path class="c" d="M743.105,144.42a.821.821,0,0,0,1.077.48.868.868,0,0,0,.465-1.113l-1.118-2.907a.819.819,0,0,0-1.075-.48.865.865,0,0,0-.465,1.113Z" transform="translate(-731.297 -139.11)"/><path class="c" d="M749.62,145.492a9.979,9.979,0,1,0,9.649,9.973A9.816,9.816,0,0,0,749.62,145.492Zm0,15.714a5.744,5.744,0,1,1,5.554-5.741A5.649,5.649,0,0,1,749.62,161.206Z" transform="translate(-731.938 -137.192)"/></g></svg>